<?xml version="1.0" encoding="UTF-8" standalone="no"?>
<svg xmlns:dc="http://purl.org/dc/elements/1.1/" xmlns:cc="http://creativecommons.org/ns#" xmlns:rdf="http://www.w3.org/1999/02/22-rdf-syntax-ns#" xmlns:svg="http://www.w3.org/2000/svg" xmlns="http://www.w3.org/2000/svg" xmlns:sodipodi="http://sodipodi.sourceforge.net/DTD/sodipodi-0.dtd" xmlns:inkscape="http://www.inkscape.org/namespaces/inkscape" viewBox="0 0 113.3864 31.729733" height="31.729733" width="113.3864" xml:space="preserve" id="svg2" version="1.1" sodipodi:docname="ayuntamiento-de-alcala-de-henares.svg" inkscape:version="0.92.3 (2405546, 2018-03-11)"><sodipodi:namedview pagecolor="#ffffff" bordercolor="#666666" borderopacity="1" objecttolerance="10" gridtolerance="10" guidetolerance="10" inkscape:pageopacity="0" inkscape:pageshadow="2" inkscape:window-width="1920" inkscape:window-height="1017" id="namedview10" showgrid="false" inkscape:zoom="4.0659097" inkscape:cx="16.24447" inkscape:cy="28.860442" inkscape:window-x="-8" inkscape:window-y="-8" inkscape:window-maximized="1" inkscape:current-layer="svg2"/><metadata id="metadata8"><rdf:RDF><cc:Work rdf:about=""><dc:format>image/svg+xml</dc:format><dc:type rdf:resource="http://purl.org/dc/dcmitype/StillImage"/><dc:title/></cc:Work></rdf:RDF></metadata><defs id="defs6"/><g transform="matrix(1.3333333,0,0,-1.3333333,4.0264803e-4,31.729733)" id="g10"><g transform="scale(0.1)" id="g12"><path id="path14" style="fill:#000000;fill-opacity:1;fill-rule:nonzero;stroke:none" d="m 123.305,115.703 c -7.184,-2.969 -14.422,-4.473 -21.762,-4.473 -2.6289,0 -5.3047,0.227 -8.043,0.594 l 15.754,62.942 z m -40.3362,-45.3319 1.875,7.2461 c 2.9921,-0.3906 6.0234,-0.6055 9.1093,-0.6055 11.7109,0 23.7229,3.6328 36.0469,10.7617 L 132.871,76.25 c -0.187,0.0391 -0.371,0.0977 -0.543,0.1172 -10.094,-5.9961 -20.367,-8.9844 -30.785,-8.9844 -5.9375,0 -12.1407,0.9961 -18.5742,2.9883 m 7.3476,28.6719 c 1.1953,-0.0586 2.4141,-0.0782 3.6367,-0.0782 10.2269,0 20.6949,2.7732 31.3829,8.1952 l 2.68,-11.242 c -8.715,-4.3946 -17.543,-6.6211 -26.473,-6.6211 -4.3008,0 -8.7305,0.5469 -13.2852,1.582 l 0.1563,0.5664 z M 208.473,3.92578 139.734,235.703 c -6.015,0.649 -11.355,1.188 -16.015,1.625 -4.676,0.426 -8.977,0.645 -12.914,0.645 -4.77,0 -9.496,-0.219 -14.1605,-0.645 -4.6523,-0.437 -9.6836,-0.976 -15.0742,-1.625 L 48.0547,124.395 c -0.1758,0 -0.3399,0.015 -0.5352,0.015 -15.4804,0 -31.1172,-5.801 -46.914031,-17.379 -1.265625,-0.988 -0.558594,-1.996 2.136721,-2.988 2.67578,-0.996 4.49219,-1.504 5.4414,-1.504 10.73831,6.012 21.01561,9 30.80471,9 1.6758,0 3.3945,-0.133 5.1133,-0.312 l -2.7188,-9.059 C 27.9063,100.84 14.3164,95.1563 0.605469,85.0977 -0.660156,84.1016 0.046875,83.125 2.74219,82.1094 5.41797,81.1133 7.23438,80.625 8.18359,80.625 18.4141,86.3281 28.2109,89.2773 37.5859,89.5508 L 34.4336,79.1406 C 23.2383,76.7969 11.9609,71.5039 0.605469,63.1836 -0.660156,62.1875 0.046875,61.1914 2.74219,60.1953 5.41797,59.1797 7.23438,58.6914 8.18359,58.6914 15.9727,63.0469 23.4961,65.7813 30.7891,66.9727 L 11.9023,4.25781 c 6.004,-1.07422 11.4454,-1.89453 16.3282,-2.42187 4.8593,-0.54688 9.1679,-0.82031 12.9023,-0.82031 3.7383,0 7.5781,0.21484 11.5078,0.64453 3.9375,0.42968 8.2852,1.09375 13.0703,1.95312 l 11.5118,44.39452 2.1875,8.5352 c 4.7109,-0.9571 9.5546,-1.4453 14.5429,-1.4453 13.1949,0 26.7969,4.5898 40.7699,13.6328 l 5.011,-20.0586 11.817,-45.05862 c 4.762,-0.85937 9.219,-1.52344 13.379,-1.95312 4.14,-0.42969 8.289,-0.64453 12.422,-0.64453 8.925,0 19.293,0.95703 31.121,2.91015"/><path id="path16" style="fill:#000000;fill-opacity:1;fill-rule:nonzero;stroke:none" d="m 820.668,6.13281 c -1.66,0.85938 -3.086,2.07032 -4.258,3.63282 -1.172,1.56247 -2.09,3.47657 -2.715,5.72267 -0.605,2.2656 -0.918,4.7656 -0.918,7.5195 0,2.7149 0.313,5.2149 0.918,7.4414 0.625,2.2461 1.543,4.1406 2.715,5.7422 1.172,1.582 2.598,2.793 4.258,3.6133 1.66,0.8398 3.535,1.25 5.645,1.25 2.07,0 3.945,-0.4102 5.605,-1.25 1.699,-0.8203 3.105,-2.0313 4.297,-3.6133 1.191,-1.6016 2.09,-3.4961 2.734,-5.7422 0.606,-2.2265 0.918,-4.7265 0.918,-7.4414 0,-2.7539 -0.312,-5.2539 -0.918,-7.5195 -0.644,-2.2461 -1.543,-4.1602 -2.734,-5.72267 -1.192,-1.5625 -2.598,-2.77344 -4.297,-3.63282 -1.66,-0.85937 -3.535,-1.28906 -5.605,-1.28906 -2.11,0 -3.985,0.42969 -5.645,1.28906 m 13.594,-4.43359 c 2.343,1.13281 4.336,2.71484 5.957,4.76562 1.621,2.05079 2.871,4.47266 3.75,7.30466 0.879,2.8125 1.308,5.8985 1.308,9.2383 0,3.3203 -0.429,6.4063 -1.308,9.2188 -0.879,2.832 -2.129,5.2539 -3.75,7.2656 -1.621,2.0117 -3.614,3.5742 -5.957,4.7266 -2.364,1.1132 -5,1.6796 -7.949,1.6796 -2.95,0 -5.586,-0.5664 -7.93,-1.6796 -2.344,-1.1524 -4.336,-2.7149 -5.957,-4.7266 -1.641,-2.0117 -2.871,-4.4336 -3.75,-7.2656 -0.879,-2.8125 -1.328,-5.8985 -1.328,-9.2188 0,-3.3398 0.449,-6.4258 1.328,-9.2383 0.879,-2.832 2.109,-5.25387 3.75,-7.30466 1.621,-2.05078 3.613,-3.63281 5.957,-4.76562 C 820.727,0.566406 823.363,0 826.313,0 c 2.949,0 5.585,0.566406 7.949,1.69922 M 769.75,0.976563 c 0.352,-0.097657 0.781,-0.175782 1.27,-0.195313 0.488,-0.039062 0.937,-0.058594 1.347,-0.058594 0.274,0 0.567,0.019532 0.938,0.058594 0.371,0.019531 0.664,0.058594 0.918,0.117188 0.117,0 0.215,0 0.312,0.039062 0.117,0.019531 0.215,0.039063 0.313,0.039063 V 40.1758 h 14.336 c 0.039,0.3711 0.078,0.7812 0.097,1.2109 0.039,0.4297 0.039,0.8399 0.039,1.211 0,0.4296 0,0.8398 -0.039,1.25 -0.019,0.4101 -0.058,0.7617 -0.097,1.0742 h -33.75 c -0.059,-0.3125 -0.098,-0.6836 -0.118,-1.1133 -0.019,-0.4297 -0.039,-0.8398 -0.039,-1.2109 0,-0.4297 0.02,-0.8399 0.039,-1.25 0.02,-0.4102 0.059,-0.8008 0.118,-1.1719 h 14.316 z m -69.961,0 c 0.781,-0.15625 1.563,-0.253907 2.402,-0.253907 0.821,0 1.622,0.097657 2.403,0.253907 V 36.1523 L 727.953,0.976563 c 0.41,-0.097657 0.84,-0.175782 1.289,-0.195313 0.43,-0.039062 0.821,-0.058594 1.113,-0.058594 0.411,0 0.84,0.019532 1.27,0.058594 0.449,0.019531 0.84,0.097656 1.211,0.195313 V 44.9219 c -0.313,0.1172 -0.684,0.1758 -1.133,0.2148 -0.43,0.0391 -0.84,0.0391 -1.191,0.0391 -0.254,0 -0.567,0 -0.879,-0.0391 -0.352,-0.039 -0.645,-0.0781 -0.899,-0.1172 -0.097,0 -0.214,-0.0195 -0.312,-0.0586 -0.117,-0.0195 -0.215,-0.039 -0.313,-0.039 V 9.60938 l -23.3,35.31252 c -0.86,0.1758 -1.7,0.2539 -2.481,0.2539 -0.332,0 -0.762,0 -1.23,-0.0391 -0.469,-0.039 -0.899,-0.0976 -1.309,-0.2148 z m -52.461,0 h 26.914 c 0.039,0.332027 0.098,0.722657 0.117,1.171877 0.039,0.44922 0.059,0.8789 0.059,1.25 0,0.42969 -0.02,0.83984 -0.059,1.25 -0.019,0.41015 -0.078,0.78125 -0.117,1.15234 H 652.426 V 21.9531 h 17.871 c 0.058,0.3125 0.098,0.7032 0.117,1.1524 0.02,0.4687 0.039,0.8789 0.039,1.2695 0,0.4297 -0.019,0.8398 -0.039,1.2305 -0.019,0.4101 -0.059,0.8008 -0.117,1.1914 h -17.871 v 13.3008 h 21.269 c 0.098,0.3711 0.176,0.7812 0.196,1.2109 0.039,0.4297 0.058,0.8594 0.058,1.2891 0,0.3711 -0.019,0.7812 -0.058,1.2109 -0.02,0.4297 -0.098,0.8008 -0.196,1.1133 h -26.367 z m -34.219,0 c 0.352,-0.097657 0.762,-0.175782 1.231,-0.195313 0.469,-0.039062 0.937,-0.058594 1.406,-0.058594 0.879,0 1.699,0.097657 2.481,0.253907 V 44.9219 c -0.782,0.1758 -1.641,0.2539 -2.559,0.2539 -0.41,0 -0.84,0 -1.27,-0.0391 -0.449,-0.039 -0.878,-0.0976 -1.289,-0.2148 z m -70.8,0 c 0.605,-0.15625 1.425,-0.253907 2.461,-0.253907 0.781,0 1.543,0.097657 2.324,0.253907 L 548.656,36.8555 561.332,10 c 0.625,-0.15625 1.231,-0.23437 1.856,-0.23437 0.683,0 1.367,0.07812 2.089,0.23437 l 12.852,26.6211 1.699,-35.644537 c 0.625,-0.15625 1.426,-0.253907 2.402,-0.253907 0.411,0 0.84,0.019532 1.29,0.058594 0.429,0.019531 0.859,0.097656 1.269,0.195313 L 582.621,44.9219 c -0.371,0.1172 -0.84,0.1758 -1.387,0.2148 -0.586,0.0391 -1.074,0.0391 -1.484,0.0391 -0.469,0 -0.957,0 -1.504,-0.0391 -0.547,-0.039 -0.976,-0.0976 -1.269,-0.2148 L 563.656,16.6211 550.277,44.9219 c -1.035,0.1758 -2.011,0.2539 -2.949,0.2539 -0.508,0 -1.055,0 -1.582,-0.0391 -0.547,-0.039 -1.016,-0.0976 -1.426,-0.2148 z m -47.832,14.843737 8.418,24.1211 8.457,-24.1211 z M 484.086,0.976563 c 0.273,-0.058594 0.625,-0.097657 1.016,-0.15625 0.41,-0.058594 0.839,-0.097657 1.23,-0.097657 0.996,0 1.992,0.097657 3.027,0.253907 l 3.575,10.234337 h 20.039 l 3.632,-10.234337 c 0.918,-0.15625 1.954,-0.253907 3.106,-0.253907 L 522.016,0.976563 506,44.9219 c -0.41,0.1172 -0.879,0.1758 -1.426,0.2148 -0.547,0.0391 -1.015,0.0391 -1.426,0.0391 -0.527,0 -1.074,0 -1.601,-0.0391 -0.547,-0.039 -1.016,-0.0976 -1.426,-0.2148 z m -30.781,0 c 0.351,-0.097657 0.781,-0.175782 1.269,-0.195313 0.489,-0.039062 0.938,-0.058594 1.348,-0.058594 0.273,0 0.566,0.019532 0.937,0.058594 0.371,0.019531 0.664,0.058594 0.918,0.117188 0.118,0 0.215,0 0.332,0.039062 0.098,0.019531 0.196,0.039063 0.293,0.039063 V 40.1758 h 14.317 c 0.058,0.3711 0.097,0.7812 0.117,1.2109 0.039,0.4297 0.039,0.8399 0.039,1.211 0,0.4296 0,0.8398 -0.039,1.25 -0.02,0.4101 -0.059,0.7617 -0.117,1.0742 h -33.735 c -0.05,-0.3125 -0.089,-0.6836 -0.113,-1.1133 -0.023,-0.4297 -0.039,-0.8398 -0.039,-1.2109 0,-0.4297 0.016,-0.8399 0.039,-1.25 0.024,-0.4102 0.063,-0.8008 0.113,-1.1719 h 14.321 z m -69.965,0 c 0.781,-0.15625 1.57,-0.253907 2.398,-0.253907 0.832,0 1.625,0.097657 2.407,0.253907 V 36.1523 L 411.504,0.976563 c 0.406,-0.097657 0.84,-0.175782 1.277,-0.195313 0.449,-0.039062 0.821,-0.058594 1.121,-0.058594 0.414,0 0.84,0.019532 1.282,0.058594 0.441,0.019531 0.839,0.097656 1.199,0.195313 V 44.9219 c -0.313,0.1172 -0.68,0.1758 -1.121,0.2148 -0.438,0.0391 -0.852,0.0391 -1.203,0.0391 -0.25,0 -0.559,0 -0.891,-0.0391 -0.332,-0.039 -0.629,-0.0781 -0.883,-0.1172 -0.113,0 -0.219,-0.0195 -0.312,-0.0586 -0.11,-0.0195 -0.207,-0.039 -0.309,-0.039 V 9.60938 L 388.379,44.9219 c -0.879,0.1758 -1.715,0.2539 -2.492,0.2539 -0.356,0 -0.766,0 -1.235,-0.0391 -0.464,-0.039 -0.906,-0.0976 -1.312,-0.2148 z M 322.43,18.3203 c 0,-5.8594 1.418,-10.35155 4.258,-13.43749 2.843,-3.08593 6.933,-4.628904 12.3,-4.628904 5.313,0 9.399,1.542974 12.239,4.628904 2.832,3.08594 4.261,7.57809 4.261,13.43749 v 26.6016 c -0.879,0.1758 -1.73,0.2539 -2.558,0.2539 -0.879,0 -1.731,-0.0781 -2.559,-0.2539 V 19.1992 c 0,-5 -0.996,-8.5937 -2.973,-10.7617 -1.992,-2.1875 -4.785,-3.26172 -8.41,-3.26172 -3.609,0 -6.422,1.07422 -8.433,3.26172 -2.012,2.168 -3.008,5.7617 -3.008,10.7617 v 25.7227 c -0.887,0.1758 -1.707,0.2539 -2.481,0.2539 -0.418,0 -0.859,0 -1.32,-0.0391 -0.465,-0.039 -0.91,-0.0976 -1.316,-0.2148 z M 280.867,0.976563 c 0.778,-0.15625 1.633,-0.253907 2.559,-0.253907 0.82,0 1.687,0.097657 2.554,0.253907 V 16.9531 l 14.563,27.9688 c -0.945,0.1758 -1.844,0.2539 -2.727,0.2539 -0.925,0 -1.793,-0.0781 -2.621,-0.2539 l -11.539,-22.9688 -11.91,22.9688 c -1.043,0.1758 -1.992,0.2539 -2.863,0.2539 -0.977,0 -1.93,-0.0781 -2.867,-0.2539 l 14.851,-27.9688 z m -54.554,14.843737 8.441,24.1211 8.437,-24.1211 z M 215.953,0.976563 c 0.246,-0.058594 0.578,-0.097657 1,-0.15625 0.41,-0.058594 0.82,-0.097657 1.238,-0.097657 0.973,0 1.985,0.097657 3.02,0.253907 l 3.543,10.234337 h 20.051 l 3.648,-10.234337 c 0.922,-0.15625 1.953,-0.253907 3.09,-0.253907 l 2.34,0.253907 -16.047,43.945337 c -0.406,0.1172 -0.875,0.1758 -1.414,0.2148 -0.555,0.0391 -1.035,0.0391 -1.442,0.0391 -0.519,0 -1.046,0 -1.585,-0.0391 -0.543,-0.039 -1.024,-0.0976 -1.434,-0.2148 L 215.953,0.976563"/><path id="path18" style="fill:#000000;fill-opacity:1;fill-rule:nonzero;stroke:none" d="m 832.953,89.8047 c 1.953,-0.5859 3.36,-1.2891 4.238,-2.0899 0.879,-0.8007 1.329,-1.9921 1.329,-3.5351 0,-1.7188 -0.762,-2.9883 -2.266,-3.8281 -1.504,-0.8203 -3.633,-1.2305 -6.367,-1.2305 -1.66,0 -3.477,0.1758 -5.469,0.5664 -1.992,0.3906 -3.945,0.9961 -5.801,1.8164 -0.644,-1.5234 -1.191,-3.1641 -1.679,-4.8437 -0.489,-1.6993 -0.801,-3.3204 -0.899,-4.8438 2.383,-1.0156 4.688,-1.7383 6.875,-2.1484 2.207,-0.4102 4.668,-0.625 7.402,-0.625 3.184,0 6.016,0.4101 8.497,1.25 2.48,0.8203 4.589,1.9726 6.289,3.4375 1.718,1.4453 3.027,3.1836 3.925,5.1953 0.918,2.0312 1.368,4.2187 1.368,6.6015 0,3.6915 -0.84,6.6407 -2.461,8.8672 -1.661,2.2266 -4.454,3.9453 -8.379,5.2149 l -5.645,1.8556 c -1.601,0.488 -2.851,1.094 -3.769,1.836 -0.918,0.722 -1.368,1.789 -1.368,3.156 0,1.313 0.528,2.332 1.543,3.02 1.036,0.73 2.637,1.086 4.883,1.086 0.84,0 1.758,-0.071 2.715,-0.239 0.957,-0.129 1.934,-0.336 2.91,-0.558 0.957,-0.254 1.895,-0.52 2.813,-0.809 0.918,-0.301 1.718,-0.625 2.402,-0.984 0.645,1.375 1.191,2.906 1.68,4.632 0.469,1.743 0.742,3.36 0.801,4.899 -2.227,0.891 -4.61,1.574 -7.168,2.047 -2.579,0.472 -4.942,0.726 -7.11,0.726 -2.851,0 -5.332,-0.414 -7.48,-1.214 -2.129,-0.797 -3.946,-1.903 -5.43,-3.297 -1.484,-1.391 -2.598,-3.016 -3.34,-4.852 -0.742,-1.836 -1.094,-3.824 -1.094,-5.969 0,-2.074 0.235,-3.851 0.704,-5.2966 0.488,-1.4648 1.23,-2.7148 2.246,-3.789 0.996,-1.0742 2.226,-1.9727 3.672,-2.7149 1.464,-0.7422 3.144,-1.4062 5.078,-2.0117 z M 781.156,70.1172 h 31.797 c 0.352,1.7773 0.527,3.5156 0.527,5.2539 0,0.9375 -0.058,1.8164 -0.136,2.5781 -0.098,0.7813 -0.215,1.6016 -0.391,2.5 h -19.922 v 9.5313 h 15.137 c 0.176,0.957 0.312,1.8359 0.391,2.6367 0.078,0.7812 0.117,1.6797 0.117,2.6172 0,0.957 -0.039,1.8164 -0.117,2.5781 -0.079,0.7813 -0.215,1.6406 -0.391,2.5975 h -15.137 v 8.453 h 19.414 c 0.118,0.903 0.215,1.762 0.293,2.594 0.098,0.828 0.137,1.711 0.137,2.656 0,0.946 -0.039,1.813 -0.137,2.594 -0.078,0.766 -0.175,1.602 -0.293,2.492 h -31.289 z m -43.242,0 c 1.074,-0.1758 2.129,-0.293 3.145,-0.3711 1.035,-0.0586 1.992,-0.0781 2.91,-0.0781 1.015,0 2.031,0.0195 2.988,0.0781 0.977,0.0781 1.953,0.1953 2.93,0.3711 v 39.8048 c 0.781,0.137 1.465,0.207 2.051,0.238 0.546,0.035 1.113,0.047 1.699,0.047 2.558,0 4.57,-0.703 6.035,-2.094 1.445,-1.398 2.168,-3.113 2.168,-5.125 0,-2.265 -0.684,-4.1794 -2.051,-5.7614 -1.367,-1.5625 -3.047,-2.8516 -5.039,-3.8672 l -2.383,-1.25 11.446,-21.8164 c 1.933,-0.3516 4.023,-0.5469 6.23,-0.5469 1.367,0 2.676,0.0781 3.887,0.1953 1.23,0.1172 2.402,0.2344 3.554,0.3516 l -11.113,19.5898 0.938,0.7227 c 0.918,0.7617 1.777,1.582 2.617,2.4023 0.82,0.8203 1.543,1.7774 2.168,2.793 0.644,1.0547 1.113,2.2461 1.465,3.6328 0.332,1.3674 0.507,2.9294 0.507,4.7074 0,4.937 -1.855,8.855 -5.546,11.757 -3.731,2.915 -8.926,4.379 -15.645,4.379 -2.578,0 -5.117,-0.101 -7.617,-0.328 -2.5,-0.203 -4.961,-0.453 -7.344,-0.75 z m -31.309,18.3398 5.215,20.938 5.235,-20.938 z M 689.262,70.1172 c 2.402,-0.3711 4.453,-0.5469 6.152,-0.5469 1.074,0 2.266,0.0586 3.516,0.1758 1.25,0.1367 2.343,0.2734 3.242,0.4492 l 2.051,8.4766 h 15.312 l 2.129,-8.5547 c 1.074,-0.2344 2.149,-0.3906 3.203,-0.4492 1.055,-0.0586 2.129,-0.0977 3.203,-0.0977 2.461,0 4.707,0.1758 6.758,0.5469 l -15.566,49.0818 c -1.016,0.239 -2.188,0.387 -3.496,0.453 -1.309,0.051 -2.422,0.075 -3.34,0.075 -0.86,0 -1.992,-0.024 -3.418,-0.075 -1.426,-0.066 -2.695,-0.187 -3.848,-0.367 z m -43.321,0 c 1.582,-0.3711 3.379,-0.5469 5.372,-0.5469 1.933,0 3.73,0.1758 5.39,0.5469 v 29.8437 l 19.492,-29.8437 c 1.7,-0.3711 3.418,-0.5469 5.118,-0.5469 1.66,0 3.339,0.1758 5.039,0.5469 v 49.0818 c -1.524,0.352 -3.184,0.528 -4.942,0.528 -1.894,0 -3.769,-0.176 -5.644,-0.528 V 89.082 l -19.493,30.117 c -1.699,0.352 -3.457,0.528 -5.214,0.528 -1.7,0 -3.418,-0.176 -5.118,-0.528 z m -35.664,0 h 31.797 c 0.332,1.7773 0.528,3.5156 0.528,5.2539 0,0.9375 -0.039,1.8164 -0.137,2.5781 -0.098,0.7813 -0.215,1.6016 -0.391,2.5 h -19.902 v 9.5313 h 15.117 c 0.176,0.957 0.293,1.8359 0.391,2.6367 0.078,0.7812 0.117,1.6797 0.117,2.6172 0,0.957 -0.039,1.8164 -0.117,2.5781 -0.098,0.7813 -0.215,1.6406 -0.391,2.5975 h -15.117 v 8.453 h 19.394 c 0.118,0.903 0.215,1.762 0.293,2.594 0.079,0.828 0.137,1.711 0.137,2.656 0,0.946 -0.058,1.813 -0.137,2.594 -0.078,0.766 -0.175,1.602 -0.293,2.492 h -31.289 z m -45.547,0 c 1.875,-0.3711 3.868,-0.5469 5.977,-0.5469 2.051,0 4.063,0.1758 6.074,0.5469 V 89.082 h 16.66 V 70.1172 c 2.051,-0.3711 4.102,-0.5469 6.153,-0.5469 2.051,0 4.023,0.1758 5.898,0.5469 v 49.0818 c -1.875,0.352 -3.887,0.528 -5.976,0.528 -2.129,0 -4.141,-0.176 -6.075,-0.528 V 99.6094 h -16.66 v 19.5896 c -2.011,0.352 -4.062,0.528 -6.172,0.528 -1.992,0 -3.964,-0.176 -5.879,-0.528 z m -52.753,0 h 31.796 c 0.332,1.7773 0.528,3.5156 0.528,5.2539 0,0.9375 -0.059,1.8164 -0.137,2.5781 -0.098,0.7813 -0.215,1.6016 -0.391,2.5 h -19.921 v 9.5313 h 15.136 c 0.176,0.957 0.293,1.8359 0.391,2.6367 0.078,0.7812 0.117,1.6797 0.117,2.6172 0,0.957 -0.039,1.8164 -0.117,2.5781 -0.098,0.7813 -0.215,1.6406 -0.391,2.5975 h -15.136 v 8.453 h 19.414 c 0.117,0.903 0.214,1.762 0.293,2.594 0.078,0.828 0.117,1.711 0.117,2.656 0,0.946 -0.039,1.813 -0.117,2.594 -0.079,0.766 -0.176,1.602 -0.293,2.492 h -31.289 z m -32.911,39.3598 c 0.684,0.136 1.329,0.226 1.934,0.289 0.586,0.043 1.191,0.066 1.836,0.066 4.141,0 7.266,-1.262 9.355,-3.816 2.071,-2.559 3.106,-6.1137 3.106,-10.7035 0,-5.1562 -1.035,-9.1016 -3.106,-11.8359 -2.089,-2.7344 -5.253,-4.1016 -9.531,-4.1016 -1.25,0 -2.461,0.1172 -3.594,0.3516 z M 467.094,70.1172 c 2.168,-0.293 4.394,-0.5664 6.679,-0.7617 2.266,-0.2149 4.786,-0.3125 7.52,-0.3125 4.785,0 8.848,0.664 12.187,2.0117 3.321,1.3281 6.036,3.1641 8.165,5.5078 2.089,2.3438 3.632,5.1367 4.609,8.3398 0.957,3.2032 1.445,6.6797 1.445,10.4102 0,3.5156 -0.469,6.7775 -1.406,9.8085 -0.938,3.031 -2.441,5.664 -4.492,7.942 -2.051,2.253 -4.688,4.007 -7.949,5.292 -3.243,1.274 -7.149,1.922 -11.719,1.922 -2.383,0 -4.942,-0.101 -7.695,-0.328 -2.715,-0.203 -5.176,-0.453 -7.344,-0.75 z m -51.539,54.7848 c 2.058,-0.351 4.117,-0.539 6.246,-0.539 0.972,0 1.957,0.028 2.984,0.086 1.02,0.078 2.051,0.211 3.074,0.453 l 12.575,9.266 c -0.977,0.187 -2.145,0.328 -3.512,0.43 -1.367,0.144 -2.793,0.195 -4.266,0.195 -1.543,0 -3.07,-0.051 -4.582,-0.195 -1.515,-0.102 -2.89,-0.243 -4.152,-0.43 z m 2.297,-36.445 5.211,20.938 5.226,-20.938 z M 400.508,70.1172 c 2.398,-0.3711 4.453,-0.5469 6.152,-0.5469 1.082,0 2.254,0.0586 3.516,0.1758 1.238,0.1367 2.328,0.2734 3.238,0.4492 l 2.055,8.4766 h 15.301 l 2.148,-8.5547 c 1.07,-0.2344 2.137,-0.3906 3.195,-0.4492 1.055,-0.0586 2.125,-0.0977 3.207,-0.0977 2.442,0 4.707,0.1758 6.758,0.5469 l -15.562,49.0818 c -1.024,0.239 -2.196,0.387 -3.508,0.453 -1.305,0.051 -2.43,0.075 -3.336,0.075 -0.856,0 -1.992,-0.024 -3.422,-0.075 -1.437,-0.066 -2.703,-0.187 -3.848,-0.367 z m -29.66,0 H 400 c 0.176,0.9961 0.281,1.9141 0.336,2.7148 0.051,0.8008 0.082,1.6797 0.082,2.6172 0,0.8399 -0.031,1.6602 -0.082,2.461 -0.055,0.8007 -0.16,1.6992 -0.336,2.7148 h -17.187 v 38.66 c -0.973,0.18 -1.954,0.301 -2.942,0.367 -0.988,0.051 -2.012,0.075 -3.035,0.075 -1.098,0 -2.113,-0.024 -3.09,-0.075 -0.965,-0.066 -1.93,-0.187 -2.898,-0.367 z m -29.578,18.3398 5.214,20.938 5.223,-20.938 z M 323.914,70.1172 c 2.395,-0.3711 4.453,-0.5469 6.16,-0.5469 1.078,0 2.25,0.0586 3.496,0.1758 1.258,0.1367 2.344,0.2734 3.25,0.4492 l 2.051,8.4766 h 15.309 l 2.129,-8.5547 c 1.089,-0.2344 2.168,-0.3906 3.211,-0.4492 1.054,-0.0586 2.121,-0.0977 3.21,-0.0977 2.446,0 4.7,0.1758 6.743,0.5469 l -15.559,49.0818 c -1.027,0.239 -2.187,0.387 -3.496,0.453 -1.309,0.051 -2.426,0.075 -3.34,0.075 -0.851,0 -1.992,-0.024 -3.422,-0.075 -1.422,-0.066 -2.699,-0.187 -3.847,-0.367 z m -4.613,10.4687 c -0.738,-0.2734 -1.469,-0.4882 -2.184,-0.625 -0.703,-0.1562 -1.453,-0.2539 -2.219,-0.3125 -0.769,-0.0586 -1.617,-0.0976 -2.527,-0.0976 -2,0 -3.68,0.4492 -5.086,1.3281 -1.39,0.8984 -2.531,2.0703 -3.414,3.5352 -0.883,1.4648 -1.527,3.125 -1.961,4.9804 -0.426,1.875 -0.64,3.8282 -0.64,5.8399 0,1.6015 0.144,3.2617 0.457,4.9806 0.324,1.738 0.894,3.301 1.726,4.73 0.813,1.422 1.918,2.61 3.281,3.516 1.371,0.914 3.094,1.371 5.219,1.371 1.699,0 3.231,-0.148 4.57,-0.477 1.336,-0.332 2.868,-0.812 4.567,-1.484 0.801,2.027 1.43,3.793 1.879,5.313 0.457,1.519 0.75,2.953 0.859,4.32 -2.445,1.07 -4.726,1.797 -6.836,2.184 -2.109,0.386 -4.176,0.589 -6.152,0.589 -3.754,0 -7.043,-0.711 -9.84,-2.101 -2.789,-1.395 -5.113,-3.254 -6.957,-5.571 -1.84,-2.312 -3.254,-4.964 -4.191,-7.976 -0.938,-2.988 -1.399,-6.1329 -1.399,-9.3946 0,-3.3789 0.402,-6.6797 1.235,-9.8438 0.82,-3.1836 2.128,-5.9765 3.925,-8.3789 1.785,-2.4023 4.102,-4.3359 6.93,-5.8008 2.816,-1.4453 6.223,-2.1679 10.207,-2.1679 1.246,0 2.418,0.0195 3.504,0.0781 1.082,0.0781 2.16,0.2148 3.207,0.4102 1.055,0.2148 2.148,0.4882 3.297,0.8398 1.133,0.3516 2.387,0.8398 3.762,1.4453 -0.129,1.6602 -0.411,3.2422 -0.899,4.8047 -0.488,1.543 -1.066,3.1641 -1.758,4.8828 -0.968,-0.3516 -1.824,-0.6641 -2.562,-0.918 M 259.723,70.1172 h 29.148 c 0.16,0.9961 0.274,1.9141 0.348,2.7148 0.047,0.8008 0.082,1.6797 0.082,2.6172 0,0.8399 -0.035,1.6602 -0.082,2.461 -0.074,0.8007 -0.188,1.6992 -0.348,2.7148 h -17.183 v 38.66 c -0.977,0.18 -1.954,0.301 -2.95,0.367 -1.008,0.051 -2.011,0.075 -3.035,0.075 -1.086,0 -2.113,-0.024 -3.07,-0.075 -0.973,-0.066 -1.942,-0.187 -2.91,-0.367 z m -29.582,18.3398 5.211,20.938 5.211,-20.938 z M 212.793,70.1172 c 2.402,-0.3711 4.441,-0.5469 6.141,-0.5469 1.093,0 2.265,0.0586 3.515,0.1758 1.25,0.1367 2.324,0.2734 3.242,0.4492 l 2.059,8.4766 h 15.301 l 2.133,-8.5547 c 1.086,-0.2344 2.144,-0.3906 3.211,-0.4492 1.046,-0.0586 2.136,-0.0977 3.207,-0.0977 2.449,0 4.695,0.1758 6.746,0.5469 l -15.547,49.0818 c -1.035,0.239 -2.211,0.387 -3.508,0.453 -1.32,0.051 -2.43,0.075 -3.336,0.075 -0.859,0 -2.004,-0.024 -3.418,-0.075 -1.426,-0.066 -2.711,-0.187 -3.848,-0.367 L 212.793,70.1172"/></g></g></svg>